<svg id="Capa_1" data-name="Capa 1" xmlns="http://www.w3.org/2000/svg" xmlns:xlink="http://www.w3.org/1999/xlink" viewBox="0 0 412 121"><defs><style>.cls-1{fill:none;}.cls-2{fill:#1a1a1a;}.cls-3{clip-path:url(#clip-path);}.cls-4{fill:#18c65e;}.cls-5{fill:#fff;}.cls-6{stroke:#000;stroke-miterlimit:10;stroke-width:0.25px;}</style><clipPath id="clip-path"><circle class="cls-1" cx="52.45" cy="60.49" r="41.26"/></clipPath></defs><circle class="cls-2" cx="52.45" cy="60.49" r="46.83"/><g class="cls-3"><rect class="cls-4" x="-0.53" y="125.69" width="47.62" height="2.85" transform="translate(-83.07 53.69) rotate(-45)"/><rect class="cls-4" x="5.16" y="131.38" width="47.62" height="2.85" transform="translate(-85.42 59.38) rotate(-45)"/><rect class="cls-4" x="0.36" y="118.34" width="41.58" height="2.85" transform="translate(-78.49 50.03) rotate(-45)"/><rect class="cls-4" x="1.34" y="111.23" width="34.87" height="2.85" transform="translate(-74.16 46.27) rotate(-45)"/><rect class="cls-4" x="-8.55" y="108.62" width="40.91" height="2.85" transform="translate(-74.33 40.65) rotate(-45)"/><rect class="cls-4" x="8.34" y="14.49" width="102.43" height="1.9"/><rect class="cls-4" x="94.65" y="62.86" width="13.28" height="2.85"/><rect class="cls-4" x="102.24" y="70.45" width="4.74" height="2.85"/><rect class="cls-4" x="4.55" y="70.45" width="5.69" height="2.85"/><polyline class="cls-2" points="112.2 81.83 81.85 51.48 63.12 70.21"/><polyline class="cls-2" points="107.93 87.04 81.85 60.96 67.86 74.95"/><polygon class="cls-5" points="106.92 88.05 81.85 62.97 68.86 75.96 66.85 73.94 81.85 58.95 108.94 86.04 106.92 88.05"/><polyline class="cls-2" points="146.34 133.99 81.85 70.45 72.6 79.69"/><polygon class="cls-5" points="145.34 135 81.86 72.45 73.61 80.7 71.6 78.69 81.84 68.44 147.34 132.98 145.34 135"/><polyline class="cls-2" points="146.34 143.48 81.85 79.93 76.16 85.62"/><polygon class="cls-5" points="145.34 144.49 81.86 81.94 77.16 86.63 75.15 84.61 81.84 77.93 147.34 142.46 145.34 144.49"/><polyline class="cls-2" points="71.65 60.25 50.55 39.15 25.42 64.28"/><polygon class="cls-4" points="26.42 65.29 24.41 63.27 50.55 37.13 72.66 59.24 70.65 61.26 50.55 41.16 26.42 65.29"/><polygon class="cls-4" points="31.16 70.03 29.15 68.02 50.55 46.62 68.86 64.94 66.85 66.95 50.55 50.64 31.16 70.03"/><polyline class="cls-2" points="115.04 121.66 50.55 58.12 34.9 73.77"/><polyline class="cls-2" points="115.04 131.15 50.55 67.6 39.64 78.51"/><polygon class="cls-4" points="114.05 132.16 50.56 69.61 40.65 79.51 38.64 77.5 50.54 65.6 116.04 130.13 114.05 132.16"/><polygon class="cls-4" points="114.05 142.59 50.56 80.04 45.63 84.97 43.62 82.95 50.54 76.03 116.04 140.57 114.05 142.59"/><polyline class="cls-2" points="86.71 123.44 22.21 59.9 -12.88 94.99"/><polyline class="cls-6" points="86.71 151.9 22.21 88.35 -12.88 123.44"/><polygon class="cls-4" points="85.71 152.91 22.22 90.36 -11.88 124.45 -13.89 122.44 22.2 86.35 87.7 150.88 85.71 152.91"/><polyline class="cls-2" points="86.71 132.93 22.21 69.38 -12.88 104.47"/><polygon class="cls-5" points="85.71 133.94 22.22 71.39 -11.88 105.48 -13.89 103.47 22.2 67.38 87.7 131.91 85.71 133.94"/><polyline class="cls-2" points="86.71 142.41 22.21 78.87 -12.88 113.96"/><polygon class="cls-5" points="85.71 143.43 22.22 80.87 -11.88 114.97 -13.89 112.95 22.2 76.86 87.7 141.4 85.71 143.43"/><polygon class="cls-5" points="111.19 82.83 81.85 53.49 64.12 71.22 62.11 69.2 81.85 49.47 113.2 80.82 111.19 82.83"/><polygon class="cls-4" points="114.05 122.67 50.56 60.12 35.91 74.77 33.9 72.76 50.54 56.11 116.04 120.65 114.05 122.67"/><polygon class="cls-5" points="85.71 124.46 22.22 61.9 -11.88 96 -13.89 93.98 22.2 57.89 87.7 122.43 85.71 124.46"/></g><path class="cls-2" d="M125.6,39.55h22.11a6.24,6.24,0,0,1,3.06.73,6.82,6.82,0,0,1,2.19,1.9,8.23,8.23,0,0,1,1.31,2.71,11.68,11.68,0,0,1,.44,3.18,11.47,11.47,0,0,1-.55,3.5,13.19,13.19,0,0,1-1.58,3.3,13.64,13.64,0,0,1-2.51,2.83,11.8,11.8,0,0,1-3.35,2,7.25,7.25,0,0,1,4,2.92,9.21,9.21,0,0,1,1.4,5.25,11.81,11.81,0,0,1-1.34,5.78,12.08,12.08,0,0,1-3.56,4,16,16,0,0,1-5.16,2.42A22.56,22.56,0,0,1,136,81H116.79Zm12.13,33.32a4.47,4.47,0,0,0,1.84-.41,4.79,4.79,0,0,0,1.6-1.17,5.55,5.55,0,0,0,1.11-1.75,5.8,5.8,0,0,0,.41-2.21,4.1,4.1,0,0,0-.73-2.51,2.3,2.3,0,0,0-2-1H130l-1.86,9Zm2.34-16.57a4.42,4.42,0,0,0,1.66-.35,4.62,4.62,0,0,0,1.52-1,5.22,5.22,0,0,0,1.08-1.69,6.4,6.4,0,0,0,.4-2.37,3.45,3.45,0,0,0-.7-2.33,2.28,2.28,0,0,0-1.81-.82h-8.81l-1.8,8.58Z"/><path class="cls-2" d="M166.61,81.56a10.8,10.8,0,0,1-4.58-.93,9.72,9.72,0,0,1-3.41-2.6,11.59,11.59,0,0,1-2.13-3.94,16,16,0,0,1-.73-5,20.36,20.36,0,0,1,1.37-7.39,21.08,21.08,0,0,1,3.65-6.18,17.48,17.48,0,0,1,5.31-4.23,13.6,13.6,0,0,1,6.36-1.57,8.43,8.43,0,0,1,5.07,1.51,7.81,7.81,0,0,1,2.92,4.09l1.05-4.85h9.39l-4.31,20c0,.27-.07.49-.09.67a4.8,4.8,0,0,0,0,.55c0,.9.49,1.36,1.46,1.4L186.27,81a20.56,20.56,0,0,1-2.3.38c-.64.06-1.2.09-1.66.09a6.4,6.4,0,0,1-3.62-.91,3.33,3.33,0,0,1-1.34-3,11.47,11.47,0,0,1,.17-1.64,13.9,13.9,0,0,1-5,4.26A13.25,13.25,0,0,1,166.61,81.56Zm4.2-7.87a6.63,6.63,0,0,0,3.56-1.14,10.62,10.62,0,0,0,3.15-3.12L178.86,63a6.33,6.33,0,0,0-1.75-3.82,4.54,4.54,0,0,0-3.32-1.49,6.05,6.05,0,0,0-3.06.85,9.39,9.39,0,0,0-2.63,2.21,11.12,11.12,0,0,0-1.81,3.15,10.37,10.37,0,0,0-.67,3.71A6.75,6.75,0,0,0,167,72,4.62,4.62,0,0,0,170.81,73.69Z"/><path class="cls-2" d="M203.6,81.56a10.8,10.8,0,0,1-4.58-.93,9.72,9.72,0,0,1-3.41-2.6,11.59,11.59,0,0,1-2.13-3.94,16,16,0,0,1-.73-5,20.36,20.36,0,0,1,1.37-7.39,21.08,21.08,0,0,1,3.65-6.18,17.48,17.48,0,0,1,5.31-4.23,13.6,13.6,0,0,1,6.36-1.57,8.43,8.43,0,0,1,5.07,1.51,7.87,7.87,0,0,1,2.92,4.09l1-4.85h9.39l-4.31,20c0,.27-.07.49-.09.67a4.8,4.8,0,0,0,0,.55c0,.9.49,1.36,1.46,1.4L223.26,81a20.56,20.56,0,0,1-2.3.38c-.64.06-1.2.09-1.66.09a6.4,6.4,0,0,1-3.62-.91,3.33,3.33,0,0,1-1.34-3,11.47,11.47,0,0,1,.17-1.64,13.9,13.9,0,0,1-5,4.26A13.25,13.25,0,0,1,203.6,81.56Zm4.2-7.87a6.63,6.63,0,0,0,3.56-1.14,10.62,10.62,0,0,0,3.15-3.12L215.85,63a6.33,6.33,0,0,0-1.75-3.82,4.54,4.54,0,0,0-3.32-1.49,6.05,6.05,0,0,0-3.06.85,9.39,9.39,0,0,0-2.63,2.21,11.12,11.12,0,0,0-1.81,3.15,10.37,10.37,0,0,0-.67,3.71A6.75,6.75,0,0,0,204,72,4.62,4.62,0,0,0,207.8,73.69Z"/><path class="cls-2" d="M231.31,50.35h9l3,22.17a10.55,10.55,0,0,0,.87-1.43l1.25-2.3q.67-1.23,1.23-2.31c.37-.72.63-1.19.79-1.43l-2.8-14.7h7.76l1.05,9.27c.11-.23.39-.8.81-1.72L255.62,55c.48-1,.92-2,1.31-2.92s.62-1.49.7-1.72h7.17A81,81,0,0,1,261.51,58a58.79,58.79,0,0,1-4.17,7l1,5.43c1.55-2.06,2.88-3.88,4-5.46s2.05-3.09,2.88-4.55,1.62-3,2.34-4.55,1.49-3.41,2.3-5.51h8.46a79.86,79.86,0,0,1-7.79,15.31A127.61,127.61,0,0,1,258.85,81h-6.12l-1.46-10.74c-.12.16-.33.51-.64,1.05s-.67,1.19-1.08,1.93l-1.34,2.39c-.49.86-1,1.66-1.38,2.39s-.79,1.39-1.1,2a6.57,6.57,0,0,1-.65,1H237Z"/><path class="cls-2" d="M283,50.64h2.8l-1.64,7.47a20.18,20.18,0,0,1,5.63-5.52,11.56,11.56,0,0,1,6.16-2,3.82,3.82,0,0,1,.82.06l-.59,2.63a13.22,13.22,0,0,0-7.26,2.42,16.48,16.48,0,0,0-5.4,6.33l-4,19h-2.92Z"/><path class="cls-2" d="M306.52,81.56a10.77,10.77,0,0,1-4.7-1,10.25,10.25,0,0,1-3.5-2.71,12.57,12.57,0,0,1-2.21-4,15,15,0,0,1-.79-4.93,17.45,17.45,0,0,1,1.49-7.09,20.34,20.34,0,0,1,4-6,19.75,19.75,0,0,1,5.75-4.14,15.33,15.33,0,0,1,6.68-1.54,10.37,10.37,0,0,1,4.64,1,10.49,10.49,0,0,1,3.5,2.74,12.78,12.78,0,0,1,2.22,4,15.57,15.57,0,0,1,.78,5,17.22,17.22,0,0,1-1.48,7,20.92,20.92,0,0,1-4,6A19.61,19.61,0,0,1,313.23,80,15.29,15.29,0,0,1,306.52,81.56Zm.53-2.62a11.63,11.63,0,0,0,5.22-1.29,15.88,15.88,0,0,0,4.61-3.44,17.72,17.72,0,0,0,3.26-5,14.38,14.38,0,0,0,1.26-5.92,13.2,13.2,0,0,0-.64-4.14A11,11,0,0,0,319,55.8a8.23,8.23,0,0,0-2.77-2.24,7.8,7.8,0,0,0-3.56-.82A11.42,11.42,0,0,0,307.48,54a16.41,16.41,0,0,0-4.58,3.48,17.77,17.77,0,0,0-3.29,5,14.76,14.76,0,0,0-1.26,6,13,13,0,0,0,.64,4.12A10.71,10.71,0,0,0,300.77,76a8.11,8.11,0,0,0,2.75,2.19A7.92,7.92,0,0,0,307.05,78.94Z"/><path class="cls-2" d="M339.72,81.56a10.77,10.77,0,0,1-4.7-1,10.16,10.16,0,0,1-3.5-2.71,12.79,12.79,0,0,1-2.22-4,15.25,15.25,0,0,1-.78-4.93A17.61,17.61,0,0,1,330,61.81a20.56,20.56,0,0,1,4-6,19.75,19.75,0,0,1,5.75-4.14,15.33,15.33,0,0,1,6.68-1.54,10.4,10.4,0,0,1,4.64,1,10.59,10.59,0,0,1,3.5,2.74,12.57,12.57,0,0,1,2.21,4,15.3,15.3,0,0,1,.79,5,17.07,17.07,0,0,1-1.49,7,20.68,20.68,0,0,1-4,6A19.61,19.61,0,0,1,346.43,80,15.29,15.29,0,0,1,339.72,81.56Zm.52-2.62a11.63,11.63,0,0,0,5.22-1.29,15.75,15.75,0,0,0,4.61-3.44,17.75,17.75,0,0,0,3.27-5,14.38,14.38,0,0,0,1.26-5.92,12.92,12.92,0,0,0-.65-4.14,10.78,10.78,0,0,0-1.78-3.36,8,8,0,0,0-2.77-2.24,7.77,7.77,0,0,0-3.56-.82A11.38,11.38,0,0,0,340.68,54a16.41,16.41,0,0,0-4.58,3.48,18,18,0,0,0-3.3,5,14.91,14.91,0,0,0-1.25,6,12.75,12.75,0,0,0,.64,4.12A10.5,10.5,0,0,0,334,76a8.08,8.08,0,0,0,2.74,2.19A8,8,0,0,0,340.24,78.94Z"/><path class="cls-2" d="M367.31,50.64h2.75l-1.58,7.24a19.94,19.94,0,0,1,5.89-5.72,12.84,12.84,0,0,1,6.77-2c2.37,0,4.11.72,5.22,2.18A10.1,10.1,0,0,1,388,58.52,17.67,17.67,0,0,1,394,52.25a13.46,13.46,0,0,1,7.14-2.13q3.51,0,5.08,2a8.67,8.67,0,0,1,1.58,5.57,29.59,29.59,0,0,1-.7,5.9L403.31,81h-2.92L404,64.06a26.2,26.2,0,0,0,.59-5.19c0-4-1.68-6.07-5-6.07a9,9,0,0,0-3.47.7,14.18,14.18,0,0,0-3.3,1.92,17.36,17.36,0,0,0-2.95,3,20.45,20.45,0,0,0-2.36,3.85L383.59,81h-2.92l3.56-16.92a26.27,26.27,0,0,0,.5-2.89,21.33,21.33,0,0,0,.15-2.42c0-4-1.66-6-5-6a9.62,9.62,0,0,0-3.5.67,12.49,12.49,0,0,0-3.33,1.93,17.51,17.51,0,0,0-2.92,3,23.09,23.09,0,0,0-2.39,3.82l-4,18.79H360.9Z"/></svg>